<svg width="180" height="124" viewBox="0 0 180 124" fill="none" xmlns="http://www.w3.org/2000/svg">
<g id="Frame">
<path id="Vector" d="M24.5142 50.7886H40.5523V57.2571H25.4899C24.8641 55.1544 24.5358 52.978 24.5142 50.7886Z" fill="#F48120"/>
<path id="Vector_2" d="M29.6888 66.1816C28.295 64.1044 27.1271 61.8909 26.2041 59.5771H42.8521V66.1731C42.8521 66.1731 37.7296 66.1136 29.6888 66.1731" fill="#F48120"/>
<path id="Vector_3" d="M43.8626 78.1499C43.6127 78.278 43.3347 78.3449 43.0524 78.3449C42.7702 78.3449 42.4921 78.278 42.2422 78.1499C39.2634 76.5295 36.567 74.4581 34.2536 72.0129C34.1665 71.8854 34.1143 71.7579 34.1491 71.6729C34.1839 71.5879 34.6108 71.5029 35.1161 71.5029H51.7641C51.8137 71.5058 51.8619 71.5204 51.9044 71.5456C51.9469 71.5708 51.9825 71.6058 52.008 71.6474C52.008 71.7239 52.008 71.8429 51.9122 71.9704C49.5876 74.4398 46.8694 76.5265 43.8626 78.1499Z" fill="#F48120"/>
<path id="Vector_4" d="M56.4336 66.2499C56.0416 66.8534 55.6322 67.4484 55.2053 68.0349L55.0746 68.2049L54.6739 68.7319C54.6129 68.7914 54.5606 68.8254 54.5171 68.8169C54.4735 68.8084 54.4474 68.7404 54.4387 68.6469V68.1709C54.4387 68.0944 54.4387 68.0094 54.4387 67.9244V60.2149L52.3391 59.4499V52.2929L42.1291 48.3999H28.4518C28.356 48.3999 28.356 48.3999 28.356 48.3999C28.356 48.3999 28.356 48.3404 28.4082 48.3064C30.0323 47.7177 31.6976 47.2433 33.3913 46.8869C36.5627 46.1856 39.801 45.8124 43.0525 45.7734C46.3142 45.7962 49.5643 46.1552 52.7486 46.8444C55.6451 47.3907 58.4314 48.3926 60.9985 49.8109C61.1774 49.9115 61.3272 50.0547 61.4338 50.2272C61.5405 50.3996 61.6005 50.5957 61.6083 50.7969C61.6083 55.8289 59.6308 61.3114 56.451 66.2414" fill="#F48120"/>
<path id="Vector_5" d="M82.1937 64.686H70.5636V62.51H82.1327C82.4285 62.5021 82.7153 62.6091 82.9301 62.8076C83.145 63.0061 83.2702 63.2797 83.2783 63.5682C83.2864 63.8568 83.1767 64.1366 82.9733 64.3463C82.7699 64.5559 82.4894 64.6781 82.1937 64.686ZM70.5636 58.8295H82.0805C82.3623 58.8295 82.6327 58.9387 82.832 59.1332C83.0313 59.3277 83.1433 59.5914 83.1433 59.8665C83.1433 60.1415 83.0313 60.4053 82.832 60.5997C82.6327 60.7942 82.3623 60.9035 82.0805 60.9035H70.5636V58.8295ZM83.8576 61.575C84.2919 61.2919 84.6212 60.88 84.7967 60.4001C84.9722 59.9202 84.9847 59.3979 84.8322 58.9105C84.6797 58.4232 84.3704 57.9967 83.9501 57.6943C83.5298 57.3919 83.0208 57.2296 82.4986 57.2315H68.769V66.25H82.7077C83.2817 66.2477 83.8382 66.0568 84.2873 65.708C84.7364 65.3591 85.0519 64.8728 85.1828 64.3275C85.3137 63.7821 85.2524 63.2097 85.0088 62.7025C84.7652 62.1954 84.3535 61.7832 83.8402 61.5325" fill="#27282A"/>
<path id="Vector_6" d="M88.6579 58.8209H99.7914C100.138 58.8209 100.47 58.9552 100.715 59.1943C100.96 59.4334 101.098 59.7577 101.098 60.0959C101.098 60.434 100.96 60.7583 100.715 60.9974C100.47 61.2365 100.138 61.3709 99.7914 61.3709H88.6579V58.8209ZM101.046 66.2499H103.119L100.663 62.8499C101.38 62.7055 102.017 62.3052 102.448 61.7272C102.879 61.1493 103.074 60.4352 102.995 59.7244C102.915 59.0137 102.567 58.3575 102.018 57.8839C101.469 57.4103 100.759 57.1534 100.027 57.1634H86.8633V66.2499H88.6579V62.9349H98.624L101.046 66.2499Z" fill="#27282A"/>
<path id="Vector_7" d="M141.329 58.8209H152.462C152.809 58.8209 153.141 58.9552 153.386 59.1943C153.631 59.4334 153.769 59.7577 153.769 60.0959C153.769 60.434 153.631 60.7583 153.386 60.9974C153.141 61.2365 152.809 61.3709 152.462 61.3709H141.329V58.8209ZM153.717 66.2499H155.79L153.325 62.8499C154.042 62.7055 154.679 62.3052 155.11 61.7272C155.542 61.1493 155.737 60.4352 155.657 59.7244C155.578 59.0137 155.229 58.3575 154.681 57.8839C154.132 57.4103 153.421 57.1534 152.689 57.1634H139.534V66.2499H141.329V62.9349H151.295L153.717 66.2499Z" fill="#27282A"/>
<path id="Vector_8" d="M106.264 60.9548V60.1048C106.264 59.7711 106.398 59.4506 106.638 59.2122C106.877 58.9738 107.203 58.8365 107.545 58.8298H118.8V60.9633L106.264 60.9548ZM107.292 57.2233C106.539 57.2538 105.826 57.5652 105.301 58.0935C104.775 58.6217 104.478 59.3264 104.47 60.0623V66.2503H106.264V62.5528H118.8V66.2503H120.595V57.2148L107.292 57.2233Z" fill="#27282A"/>
<path id="Vector_9" d="M137.8 64.6942H124.323V62.5522H135.126V60.9542H124.323V58.8122H137.8V57.2227H122.511V66.2837H137.8V64.6942Z" fill="#27282A"/>
</g>
</svg>
